# xmcd
#
# Track frame offsets:
#	150
#	23501
#	37873
#	49635
#	62396
#	75024
#	91394
#	107178
#	118368
#	135988
#	148512
#	161536
#	171682
#	184980
#	199307
#	211434
#	226337
#	242856
#
# Disc length: 3540 seconds
#
# Revision: 1
# Processed by: cddbd v1.4PL0 Copyright (c) Steve Scherf et al.
# Submitted via: EasyCDDAExtractor 5.0.7
#
DISCID=f10dd212
DTITLE=B.B. KING - MY KIND OF BLUES
DYEAR=2003
DGENRE=BLUES
TTITLE0=B.B. KingLost Your Good Thing Now-easymp3s
TTITLE1=B.B. King - Mr Pawnbroker-easymp3s
TTITLE2=B.B. King - Understand-easymp3s
TTITLE3=B.B. King - Someday Baby-easymp3s
TTITLE4=B.B. King - Driving Wheel-easymp3s
TTITLE5=B.B. King - Walking Dr Bill-easymp3s
TTITLE6=B.B. King - My Own Fault-easymp3s
TTITLE7=B.B. King - Fishin After Me-easymp3s
TTITLE8=B.B. King - Hold That Train-easymp3s
TTITLE9=B.B. King - Please Set The Date-easymp3s
TTITLE10=B.B. King - Sunny Road (Previously Unreleased)-easymp3s
TTITLE11=You Done 12 - B.B. King - Running Wild (Previously Unreleased)-easymp
TTITLE11=3s
TTITLE12=B.B. King - Blues At Sunris (Previously Unreleased)-easymp3s
TTITLE13=B.B. King - Drifting Blues (Previously Unreleased)-easymp3s
TTITLE14=B.B. King - Somebody Done Changed The Lock On My Door (Previously Unr
TTITLE14=eleased)-easymp3s
TTITLE15=B.B. King - Look The World Over (Undubbed Version )-easymp3s
TTITLE16=B.B. King - Walking Dr Bill (Overdub)-easymp3s
TTITLE17=B.B. King - Hold That Train (Previously Unissued Modern Recording Tak
TTITLE17=e 1)-easymp3s
EXTD=
EXTT0=
EXTT1=
EXTT2=
EXTT3=
EXTT4=
EXTT5=
EXTT6=
EXTT7=
EXTT8=
EXTT9=
EXTT10=
EXTT11=
EXTT12=
EXTT13=
EXTT14=
EXTT15=
EXTT16=
EXTT17=
PLAYORDER=
